<?xml version="1.0"?>
<svg xmlns="http://www.w3.org/2000/svg" id="Layer_1" data-name="Layer 1" viewBox="0 0 512 512" width="512" height="512"><title>Search</title><path d="M393.226,348.313a131.216,131.216,0,0,0,34.482-88.762c0-68.667-52.817-125.222-119.958-131.2V81a46.053,46.053,0,0,0-46-46h-160a46.053,46.053,0,0,0-46,46V431a46.053,46.053,0,0,0,46,46h160a46.053,46.053,0,0,0,46-46V390.748a131.254,131.254,0,0,0,76.991-33.95l61.267,61.267a6,6,0,1,0,8.484-8.485Zm22.482-88.762A119.729,119.729,0,1,1,295.979,139.823,119.864,119.864,0,0,1,415.708,259.551ZM101.75,47h160a34.038,34.038,0,0,1,34,34V95h-14a6,6,0,0,0,0,12h14v20.826c-72.531.124-131.5,59.166-131.5,131.725s58.969,131.6,131.5,131.726V393h-228V107h163a6,6,0,0,0,0-12h-163V81A34.038,34.038,0,0,1,101.75,47Zm160,418h-160a34.038,34.038,0,0,1-34-34V405h228v26A34.038,34.038,0,0,1,261.75,465Z"/><path d="M250.444,107h11.117a6,6,0,0,0,0-12H250.444a6,6,0,1,0,0,12Z"/><path d="M181.75,414a21,21,0,1,0,21,21A21.024,21.024,0,0,0,181.75,414Zm0,30a9,9,0,1,1,9-9A9.01,9.01,0,0,1,181.75,444Z"/></svg>
